<?xml version="1.0" standalone="no"?>
<!DOCTYPE svg PUBLIC "-//W3C//DTD SVG 20010904//EN"
 "http://www.w3.org/TR/2001/REC-SVG-20010904/DTD/svg10.dtd">
<svg version="1.0" xmlns="http://www.w3.org/2000/svg"
 width="122.000000pt" height="160.000000pt" viewBox="0 0 122.000000 160.000000"
 preserveAspectRatio="xMidYMid meet">

<g transform="translate(0.000000,160.000000) scale(0.100000,-0.100000)"
fill="#e9f1fb" stroke="none">
<path d="M439 1303 l-24 -28 28 24 c25 23 32 31 24 31 -2 0 -14 -12 -28 -27z"/>
<path d="M333 1158 c-15 -20 -25 -38 -20 -38 3 0 12 11 21 25 17 26 16 35 -1
13z"/>
<path d="M654 1154 c-18 -14 -18 -15 4 -4 12 6 22 13 22 15 0 8 -5 6 -26 -11z"/>
<path d="M270 1146 c0 -8 -7 -17 -15 -20 -13 -5 -14 -10 -5 -26 18 -34 7 -42
-32 -21 -30 15 -40 16 -48 6 -8 -10 -5 -14 13 -19 24 -6 24 -6 11 -58 -8 -28
-12 -53 -11 -55 2 -1 19 8 37 22 40 29 78 35 45 7 -28 -23 -55 -63 -55 -81 0
-8 10 1 23 20 27 40 56 50 64 21 3 -12 10 -19 16 -17 7 3 20 -13 30 -35 10
-22 22 -40 27 -40 9 0 25 66 22 93 -1 10 15 29 40 47 22 17 39 30 36 30 -17 0
-78 -32 -78 -41 0 -6 -6 -9 -12 -6 -7 2 -12 15 -10 28 2 20 1 21 -8 8 -5 -9
-8 -35 -6 -58 2 -23 1 -41 -4 -41 -11 0 -20 26 -21 58 l-1 27 -8 -25 -7 -25
-12 30 c-11 27 -10 61 5 120 5 19 4 19 -10 2 -18 -24 -30 -6 -21 33 4 17 4 30
1 30 -3 0 -6 -6 -6 -14z m0 -111 c15 -18 16 -17 -27 -32 -27 -9 -33 -9 -33 2
0 43 35 60 60 30z"/>
<path d="M466 1108 c-9 -17 -16 -34 -16 -37 0 -10 34 43 36 56 3 21 -4 15 -20
-19z"/>
<path d="M690 1099 c-24 -16 -37 -29 -30 -29 8 0 31 14 50 30 44 37 38 37 -20
-1z"/>
<path d="M810 1114 l-25 -15 25 7 c14 3 29 10 35 15 15 14 -7 10 -35 -7z"/>
<path d="M584 1104 c-18 -14 -18 -15 4 -4 12 6 22 13 22 15 0 8 -5 6 -26 -11z"/>
<path d="M205 1101 c-3 -5 4 -13 16 -16 28 -9 36 1 10 14 -12 7 -22 7 -26 2z"/>
<path d="M730 1047 c0 -36 63 -69 75 -39 3 8 1 20 -5 26 -8 8 -9 6 -5 -6 5
-13 2 -15 -14 -11 -22 5 -29 23 -10 23 5 0 7 5 4 10 -9 15 -45 12 -45 -3z"/>
<path d="M818 1048 c9 -9 15 -9 24 0 9 9 7 12 -12 12 -19 0 -21 -3 -12 -12z"/>
<path d="M868 1033 c7 -3 16 -2 19 1 4 3 -2 6 -13 5 -11 0 -14 -3 -6 -6z"/>
<path d="M25 1018 c11 -7 21 -11 23 -10 1 2 10 -4 18 -13 18 -17 30 -19 39 -5
4 6 -1 7 -11 3 -12 -4 -15 -3 -10 5 4 7 15 12 25 12 25 0 22 -43 -4 -52 -15
-5 -12 -6 10 -5 27 2 30 6 33 37 l3 36 -42 -3 c-23 -1 -48 -4 -55 -7 -7 -3
-16 -1 -19 4 -4 6 -12 10 -18 10 -7 0 -3 -6 8 -12z"/>
<path d="M1165 1009 c-22 -5 -67 -9 -100 -9 -33 -1 -76 -5 -95 -9 l-35 -8 32
-7 c41 -9 52 -24 15 -20 -15 2 -2 -5 28 -15 l55 -19 35 26 c26 19 31 21 17 5
-10 -11 -21 -40 -26 -64 -7 -32 -9 -37 -10 -16 -1 25 -3 27 -23 16 -18 -10
-20 -9 -15 5 6 14 -4 16 -76 15 -50 -1 -70 -4 -52 -8 17 -3 46 -18 65 -33 l33
-26 -40 -49 c-22 -26 -48 -60 -58 -75 -20 -32 -32 -36 -32 -10 1 71 -7 78 -13
14 -6 -52 -14 -80 -28 -95 -11 -12 -31 -45 -46 -74 l-25 -51 -93 29 c-51 16
-103 29 -114 29 -16 0 -23 8 -28 30 -3 20 -12 30 -23 30 -15 0 -16 2 -3 10 18
11 7 23 -25 27 -32 5 -116 40 -135 58 -13 12 -15 3 -13 -78 2 -81 1 -88 -10
-62 -23 57 -52 96 -75 102 -18 4 -21 8 -10 14 8 5 8 9 2 9 -6 0 -17 -7 -24
-15 -7 -8 -24 -15 -39 -15 l-26 1 28 20 c34 26 53 58 32 55 -8 -1 -26 -13 -40
-26 -24 -23 -25 -23 -46 -4 -21 19 -21 19 -8 -9 10 -23 10 -30 0 -36 -9 -6 -8
-16 7 -42 29 -50 36 -79 19 -79 -15 0 -57 41 -57 56 0 5 5 2 11 -6 9 -13 10
-13 6 0 -2 8 -11 14 -19 12 -9 -1 -22 6 -29 15 -13 17 -13 17 6 3 15 -11 14
-7 -4 13 -14 15 -25 26 -26 24 -1 -1 -5 -18 -9 -38 -6 -32 -2 -42 32 -85 44
-56 67 -144 38 -144 -9 0 -25 20 -37 44 -11 25 -27 50 -35 57 -11 9 -14 6 -14
-17 0 -16 4 -46 9 -67 5 -21 5 -39 0 -43 -5 -3 -9 -17 -9 -32 0 -34 48 -67 68
-46 7 7 12 18 12 24 0 5 5 10 11 10 5 0 7 6 3 13 -4 6 -4 9 1 5 4 -4 19 1 33
12 13 11 28 17 33 14 5 -3 9 -2 8 3 -4 23 3 24 27 2 22 -21 24 -21 18 -4 -7
19 -6 19 12 4 10 -9 24 -14 31 -12 6 2 24 -2 39 -10 22 -12 37 -12 85 -2 33 7
59 10 59 6 0 -11 -64 -58 -90 -66 -30 -9 -40 -22 -40 -55 0 -14 -9 -31 -20
-38 -11 -7 -20 -23 -20 -35 0 -23 -51 -111 -72 -123 -6 -4 -13 -2 -17 4 -4 7
-12 8 -21 2 -8 -6 -37 -9 -65 -9 l-50 1 62 16 c46 11 64 21 72 39 11 23 0 58
-23 75 -15 10 -16 41 -3 57 10 12 9 13 -8 3 -11 -6 -44 -18 -72 -27 -72 -22
-77 -37 -7 -18 31 8 58 12 61 10 6 -7 -33 -42 -84 -78 -45 -32 -55 -54 -25
-62 16 -4 16 -5 0 -6 -23 -1 -23 -28 -1 -33 9 -2 47 -1 83 3 36 3 67 2 68 -3
2 -4 32 -8 67 -8 60 0 64 2 89 35 15 19 40 42 57 50 16 9 29 24 29 34 0 11 12
24 30 31 26 11 30 18 30 50 0 65 8 74 41 46 l29 -25 71 26 71 27 18 -24 c14
-18 16 -28 8 -38 -8 -9 -6 -18 7 -32 21 -24 27 -18 -88 -100 -48 -34 -90 -67
-93 -71 -3 -5 144 -9 330 -9 l336 0 0 195 c0 150 -3 195 -12 195 -7 -1 -32 -5
-55 -9 -28 -5 -43 -5 -43 2 0 6 -10 2 -22 -9 l-23 -19 19 22 c10 13 22 20 27
18 4 -3 11 0 15 6 5 8 9 8 14 -1 6 -10 15 -10 44 0 33 11 36 15 36 51 0 21 -4
39 -9 39 -5 0 -32 -18 -60 -40 -68 -54 -78 -51 -16 5 27 25 57 45 67 45 17 0
18 17 18 255 0 140 -1 254 -2 254 -2 -1 -21 -5 -43 -10z m-768 -340 c29 -11
93 -67 93 -82 0 -4 -13 1 -30 13 -16 12 -30 17 -30 12 0 -6 7 -13 16 -16 9 -4
14 -9 11 -12 -7 -7 -63 22 -73 37 -5 8 -3 9 7 4 8 -4 1 6 -15 23 -31 34 -26
39 21 21z m-176 -46 c-12 -20 -14 -14 -5 12 4 9 9 14 11 11 3 -2 0 -13 -6 -23z
m275 -62 c22 -6 54 -22 69 -35 l29 -25 -59 15 c-67 18 -106 36 -124 58 -11 13
-9 14 16 6 15 -5 46 -14 69 -19z m-245 -48 c39 -38 47 -65 28 -93 -8 -12 -9
-10 -4 8 4 15 2 22 -8 22 -8 0 -22 9 -32 20 -10 11 -21 17 -26 14 -11 -6 -23
41 -14 55 10 16 14 14 56 -26z m819 22 c7 -9 10 -18 6 -22 -3 -3 -6 -1 -6 5 0
7 -9 12 -21 12 -11 0 -17 5 -14 10 9 14 21 12 35 -5z m-20 -82 c-1 -24 -2 -26
-11 -10 -5 9 -7 22 -4 27 10 17 15 11 15 -17z m-819 0 c13 -16 12 -17 -3 -4
-10 7 -18 15 -18 17 0 8 8 3 21 -13z m30 -76 c-10 -9 -11 -8 -5 6 3 10 9 15
12 12 3 -3 0 -11 -7 -18z m922 -66 c3 -12 -1 -21 -12 -24 -11 -3 -16 3 -17 20
-2 28 22 31 29 4z m-53 -51 c0 -5 -5 -10 -11 -10 -5 0 -7 5 -4 10 3 6 8 10 11
10 2 0 4 -4 4 -10z m-975 -130 l15 -29 -37 -10 c-48 -14 -70 -14 -78 -1 -3 5
0 7 9 4 8 -3 28 8 48 26 l33 32 -35 -22 -35 -22 30 26 c17 14 31 26 32 26 1 0
9 -13 18 -30z"/>
<path d="M690 980 c-19 -11 -28 -19 -20 -19 8 -1 22 3 30 9 9 5 19 5 26 -1 9
-8 11 -5 7 10 -3 12 -6 21 -7 21 0 -1 -17 -9 -36 -20z"/>
<path d="M814 983 c3 -19 1 -21 -14 -13 -28 15 -35 12 -18 -7 8 -10 18 -26 21
-36 4 -10 11 -15 17 -12 12 8 12 43 -1 70 -9 19 -9 19 -5 -2z"/>
<path d="M895 983 c11 -3 27 -10 35 -17 13 -10 13 -9 1 7 -7 9 -23 16 -35 16
-20 -1 -20 -2 -1 -6z"/>
<path d="M860 940 c0 -6 7 -10 15 -10 8 0 15 2 15 4 0 2 -7 6 -15 10 -8 3 -15
1 -15 -4z"/>
<path d="M191 931 c-8 -5 -14 -23 -13 -41 1 -39 12 -54 12 -16 0 15 5 36 10
47 12 21 11 22 -9 10z"/>
<path d="M231 895 c-27 -31 -31 -43 -30 -88 2 -49 2 -50 9 -17 4 19 8 28 9 20
2 -24 21 10 21 38 0 15 4 21 11 16 7 -4 10 -1 7 7 -3 8 4 24 15 37 17 18 18
22 5 22 -9 0 -30 -16 -47 -35z"/>
<path d="M150 879 c0 -18 -10 -31 -35 -45 l-35 -20 35 0 c19 0 30 3 24 7 -7 4
-5 8 5 12 9 4 16 2 16 -3 0 -6 4 -10 9 -10 5 0 5 15 1 36 -10 44 -20 55 -20
23z"/>
<path d="M843 885 c-21 -11 -21 -11 -1 -35 18 -23 18 -23 8 -2 -6 12 -7 22 -2
22 5 0 14 -12 21 -26 6 -15 14 -24 17 -21 3 3 0 15 -6 27 -11 20 -10 21 12 15
25 -8 24 -8 52 -6 20 1 20 1 0 16 -22 17 -38 20 -29 5 9 -15 -16 -12 -34 3
-12 11 -21 11 -38 2z"/>
<path d="M126 877 c3 -10 9 -15 12 -12 3 3 0 11 -7 18 -10 9 -11 8 -5 -6z"/>
<path d="M300 881 c0 -6 4 -13 10 -16 6 -3 7 1 4 9 -7 18 -14 21 -14 7z"/>
<path d="M576 849 c-16 -19 -37 -37 -47 -41 -11 -4 -19 -17 -19 -30 0 -13 -3
-34 -7 -47 -5 -21 -4 -23 18 -16 28 9 41 25 34 43 -7 19 14 54 27 46 7 -5 9
-2 5 9 -3 9 -2 19 3 22 14 9 12 -32 -2 -58 -10 -19 -9 -20 4 -9 21 17 29 52
20 86 l-8 29 -28 -34z"/>
<path d="M303 822 c0 -9 -10 -42 -22 -71 -11 -30 -17 -57 -12 -60 4 -4 14 -17
20 -29 18 -35 25 -19 10 22 -13 37 -5 62 11 36 8 -13 10 -12 10 3 0 9 -4 17
-8 17 -4 0 -6 16 -4 35 5 41 4 40 40 18 28 -17 25 -13 -18 24 -23 20 -26 20
-27 5z"/>
<path d="M383 784 c7 -8 87 -7 95 0 3 3 -19 6 -48 6 -29 0 -51 -3 -47 -6z"/>
<path d="M442 704 c10 -10 20 -15 24 -12 3 4 -5 12 -18 18 -22 12 -22 12 -6
-6z"/>
<path d="M683 598 c-30 -34 -36 -48 -21 -48 7 0 21 16 30 35 21 41 19 43 -9
13z"/>
</g>
</svg>
